# xmcd
#
# Track frame offsets: 
#        150
#        43221
#        79138
#        117080
#        152289
#        200538
#        206040
#        232777
#        254748
#        264252
#
# Disc length: 3782 seconds
#
# Revision: 0
# Processed by: cddbd v1.5.2PL0 Copyright (c) Steve Scherf et al.
# Submitted via: ExactAudioCopyFreeDBPlugin 1.0
#
DISCID=800ec40a
DTITLE=Eric ClaptonFriends - Happy Birthday Eric
DYEAR=1976
DGENRE=Blues
TTITLE0=It`s Erics Birthday
TTITLE1=Who Do You Love
TTITLE2=Hard Times
TTITLE3=Stormy Monday
TTITLE4=Instrumental Jam
TTITLE5=Adios Mi Corason
TTITLE6=The Water Is Wide
TTITLE7=Idiot Wind
TTITLE8=Big River
TTITLE9=Steppin Out
EXTD=
EXTT0=
EXTT1=
EXTT2=
EXTT3=
EXTT4=
EXTT5=
EXTT6=
EXTT7=
EXTT8=
EXTT9=
PLAYORDER=
